<svg width="312" height="113" viewBox="0 0 312 113" fill="none" xmlns="http://www.w3.org/2000/svg">
<path d="M4 13H0V113H4V13Z" fill="white"/>
<path d="M8 13H6V113H8V13Z" fill="white"/>
<path d="M14 13H12V113H14V13Z" fill="white"/>
<path d="M24 13H22V113H24V13Z" fill="white"/>
<path d="M32 13H30V113H32V13Z" fill="white"/>
<path d="M42 13H38V113H42V13Z" fill="white"/>
<path d="M46 13H44V113H46V13Z" fill="white"/>
<path d="M52 13H50V113H52V13Z" fill="white"/>
<path d="M64 13H56V113H64V13Z" fill="white"/>
<path d="M70 13H66V113H70V13Z" fill="white"/>
<path d="M76 13H72V113H76V13Z" fill="white"/>
<path d="M86 13H78V113H86V13Z" fill="white"/>
<path d="M90 13H88V113H90V13Z" fill="white"/>
<path d="M100 13H92V113H100V13Z" fill="white"/>
<path d="M106 13H104V113H106V13Z" fill="white"/>
<path d="M112 13H110V113H112V13Z" fill="white"/>
<path d="M124 13H116V113H124V13Z" fill="white"/>
<path d="M128 13H126V113H128V13Z" fill="white"/>
<path d="M134 13H132V113H134V13Z" fill="white"/>
<path d="M140 13H138V113H140V13Z" fill="white"/>
<path d="M146 13H142V113H146V13Z" fill="white"/>
<path d="M158 13H154V113H158V13Z" fill="white"/>
<path d="M164 13H162V113H164V13Z" fill="white"/>
<path d="M168 13H166V113H168V13Z" fill="white"/>
<path d="M178 13H176V113H178V13Z" fill="white"/>
<path d="M184 13H182V113H184V13Z" fill="white"/>
<path d="M196 13H188V113H196V13Z" fill="white"/>
<path d="M200 13H198V113H200V13Z" fill="white"/>
<path d="M208 13H204V113H208V13Z" fill="white"/>
<path d="M218 13H216V113H218V13Z" fill="white"/>
<path d="M222 13H220V113H222V13Z" fill="white"/>
<path d="M236 13H228V113H236V13Z" fill="white"/>
<path d="M240 13H238V113H240V13Z" fill="white"/>
<path d="M244 13H242V113H244V13Z" fill="white"/>
<path d="M250 13H248V113H250V13Z" fill="white"/>
<path d="M262 13H254V113H262V13Z" fill="white"/>
<path d="M268 13H264V113H268V13Z" fill="white"/>
<path d="M278 13H270V113H278V13Z" fill="white"/>
<path d="M284 13H280V113H284V13Z" fill="white"/>
<path d="M290 13H286V113H290V13Z" fill="white"/>
<path d="M302 13H296V113H302V13Z" fill="white"/>
<path d="M306 13H304V113H306V13Z" fill="white"/>
<path d="M312 13H308V113H312V13Z" fill="white"/>
<rect width="164" height="40" transform="translate(74)" fill="#1F1514"/>
<path d="M89.632 26.192C88.9813 26.192 88.3733 26.0747 87.808 25.84C87.2533 25.5947 86.7627 25.2427 86.336 24.784C85.92 24.3147 85.5893 23.744 85.344 23.072C85.1093 22.4 84.992 21.6373 84.992 20.784C84.992 19.6427 85.2 18.6667 85.616 17.856C86.032 17.0347 86.5973 16.4107 87.312 15.984C88.0267 15.5467 88.8427 15.328 89.76 15.328C90.4 15.328 90.9707 15.4613 91.472 15.728C91.9733 15.984 92.384 16.2827 92.704 16.624L91.808 17.632C91.5413 17.344 91.2373 17.12 90.896 16.96C90.5653 16.8 90.1867 16.72 89.76 16.72C89.1413 16.72 88.5973 16.8853 88.128 17.216C87.6587 17.536 87.2907 17.9947 87.024 18.592C86.768 19.1893 86.64 19.904 86.64 20.736C86.64 21.568 86.768 22.288 87.024 22.896C87.2907 23.504 87.6587 23.9733 88.128 24.304C88.608 24.6347 89.1627 24.8 89.792 24.8C90.2507 24.8 90.6613 24.704 91.024 24.512C91.3867 24.3093 91.7227 24.0373 92.032 23.696L92.928 24.672C92.5227 25.152 92.048 25.5253 91.504 25.792C90.96 26.0587 90.336 26.192 89.632 26.192ZM95.8018 26V18.176H97.1138L97.2418 20H97.2898C97.6951 19.36 98.1911 18.864 98.7778 18.512C99.3644 18.16 100.004 17.984 100.698 17.984C100.996 17.984 101.268 18.0107 101.514 18.064C101.759 18.1173 101.999 18.1973 102.234 18.304L101.882 19.664C101.615 19.568 101.386 19.504 101.194 19.472C101.002 19.4293 100.756 19.408 100.458 19.408C99.8924 19.408 99.3484 19.568 98.8258 19.888C98.3031 20.208 97.8231 20.7627 97.3858 21.552V26H95.8018ZM105.332 29.28C105.14 29.28 104.948 29.264 104.756 29.232C104.564 29.2 104.398 29.1627 104.26 29.12L104.58 27.888C104.676 27.92 104.782 27.9467 104.9 27.968C105.017 27.9893 105.134 28 105.252 28C105.774 28 106.196 27.856 106.516 27.568C106.836 27.28 107.086 26.9227 107.268 26.496L107.476 25.952L103.908 18.176H105.492L107.252 22.256C107.39 22.608 107.534 22.9813 107.684 23.376C107.844 23.76 108.004 24.1493 108.164 24.544H108.228C108.356 24.1707 108.489 23.7867 108.628 23.392C108.766 22.9867 108.9 22.608 109.028 22.256L110.58 18.176H112.084L108.74 26.496C108.537 27.0507 108.286 27.536 107.988 27.952C107.689 28.368 107.321 28.6933 106.884 28.928C106.457 29.1627 105.94 29.28 105.332 29.28ZM117.677 26.192C116.941 26.192 116.237 26.0693 115.565 25.824C114.893 25.5787 114.323 25.296 113.853 24.976L114.557 23.952C115.016 24.272 115.512 24.5227 116.045 24.704C116.589 24.8853 117.203 24.976 117.885 24.976C118.483 24.976 118.925 24.8693 119.213 24.656C119.512 24.4427 119.661 24.192 119.661 23.904C119.661 23.7653 119.629 23.6373 119.565 23.52C119.512 23.4027 119.405 23.296 119.245 23.2C119.096 23.0933 118.867 22.992 118.557 22.896C118.259 22.8 117.864 22.6987 117.373 22.592C116.339 22.3787 115.571 22.0853 115.069 21.712C114.579 21.3387 114.333 20.8587 114.333 20.272C114.333 19.6107 114.616 19.0667 115.181 18.64C115.757 18.2027 116.589 17.984 117.677 17.984C118.296 17.984 118.883 18.0907 119.437 18.304C120.003 18.5067 120.483 18.7413 120.877 19.008L120.141 20C119.768 19.7547 119.357 19.5627 118.909 19.424C118.472 19.2747 118.013 19.2 117.533 19.2C117.139 19.2 116.824 19.248 116.589 19.344C116.355 19.4293 116.184 19.5467 116.077 19.696C115.971 19.8453 115.917 20.0107 115.917 20.192C115.917 20.4907 116.083 20.7253 116.413 20.896C116.755 21.056 117.304 21.216 118.061 21.376C118.915 21.5573 119.571 21.76 120.029 21.984C120.499 22.208 120.819 22.4693 120.989 22.768C121.171 23.056 121.261 23.4027 121.261 23.808C121.261 24.2453 121.123 24.6453 120.845 25.008C120.568 25.3707 120.163 25.6587 119.629 25.872C119.107 26.0853 118.456 26.192 117.677 26.192ZM128.663 26.192C127.874 26.192 127.25 26.0533 126.791 25.776C126.343 25.4987 126.023 25.1147 125.831 24.624C125.639 24.1333 125.543 23.5627 125.543 22.912V19.456H123.399V18.272L125.607 18.176L125.815 15.712H127.127V18.176H130.823V19.456H127.127V22.912C127.127 23.3493 127.186 23.7227 127.303 24.032C127.42 24.3307 127.618 24.5547 127.895 24.704C128.172 24.8427 128.546 24.912 129.015 24.912C129.367 24.912 129.687 24.8853 129.975 24.832C130.263 24.768 130.54 24.688 130.807 24.592L131.127 25.744C130.775 25.8613 130.396 25.9627 129.991 26.048C129.596 26.144 129.154 26.192 128.663 26.192ZM135.825 26.192C135.323 26.192 134.87 26.1013 134.465 25.92C134.07 25.728 133.755 25.4667 133.521 25.136C133.297 24.7947 133.185 24.3947 133.185 23.936C133.185 23.0613 133.611 22.3947 134.465 21.936C135.329 21.4773 136.742 21.1733 138.705 21.024C138.694 20.704 138.619 20.4107 138.481 20.144C138.353 19.8773 138.145 19.6693 137.857 19.52C137.579 19.36 137.211 19.28 136.753 19.28C136.433 19.28 136.118 19.3227 135.809 19.408C135.499 19.4827 135.201 19.5893 134.913 19.728C134.625 19.8667 134.353 20.0107 134.097 20.16L133.505 19.088C133.793 18.9173 134.123 18.7467 134.497 18.576C134.87 18.3947 135.27 18.2507 135.697 18.144C136.134 18.0373 136.577 17.984 137.025 17.984C137.75 17.984 138.353 18.1173 138.833 18.384C139.313 18.6507 139.675 19.0293 139.921 19.52C140.166 20.0107 140.289 20.6027 140.289 21.296V26H138.993L138.865 24.992H138.817C138.401 25.312 137.931 25.5947 137.409 25.84C136.886 26.0747 136.358 26.192 135.825 26.192ZM136.273 24.928C136.689 24.928 137.099 24.8373 137.505 24.656C137.91 24.4747 138.31 24.2187 138.705 23.888V22.032C137.681 22.1067 136.875 22.224 136.289 22.384C135.713 22.544 135.307 22.7467 135.073 22.992C134.838 23.2267 134.721 23.504 134.721 23.824C134.721 24.08 134.79 24.2933 134.929 24.464C135.078 24.624 135.27 24.7413 135.505 24.816C135.739 24.8907 135.995 24.928 136.273 24.928ZM148.011 26.192C147.147 26.192 146.485 25.9413 146.027 25.44C145.568 24.928 145.339 24.2027 145.339 23.264V15.936H142.731V14.656H146.923V23.36C146.923 23.904 147.061 24.2987 147.339 24.544C147.616 24.7787 147.963 24.896 148.379 24.896C148.592 24.896 148.811 24.8693 149.035 24.816C149.269 24.7627 149.525 24.6773 149.803 24.56L150.187 25.744C149.813 25.872 149.467 25.9787 149.147 26.064C148.837 26.1493 148.459 26.192 148.011 26.192ZM153.364 26V18.176H154.676L154.804 20H154.852C155.258 19.36 155.754 18.864 156.34 18.512C156.927 18.16 157.567 17.984 158.26 17.984C158.559 17.984 158.831 18.0107 159.076 18.064C159.322 18.1173 159.562 18.1973 159.796 18.304L159.444 19.664C159.178 19.568 158.948 19.504 158.756 19.472C158.564 19.4293 158.319 19.408 158.02 19.408C157.455 19.408 156.911 19.568 156.388 19.888C155.866 20.208 155.386 20.7627 154.948 21.552V26H153.364ZM165.55 26.192C164.867 26.192 164.227 26.032 163.63 25.712C163.043 25.392 162.563 24.928 162.19 24.32C161.827 23.7013 161.646 22.96 161.646 22.096C161.646 21.232 161.827 20.496 162.19 19.888C162.563 19.2693 163.043 18.8 163.63 18.48C164.227 18.1493 164.867 17.984 165.55 17.984C166.233 17.984 166.867 18.1493 167.454 18.48C168.051 18.8 168.531 19.2693 168.894 19.888C169.267 20.496 169.454 21.232 169.454 22.096C169.454 22.96 169.267 23.7013 168.894 24.32C168.531 24.928 168.051 25.392 167.454 25.712C166.867 26.032 166.233 26.192 165.55 26.192ZM165.55 24.896C166.009 24.896 166.409 24.7787 166.75 24.544C167.091 24.3093 167.353 23.984 167.534 23.568C167.726 23.152 167.822 22.6613 167.822 22.096C167.822 21.5413 167.726 21.056 167.534 20.64C167.353 20.2133 167.091 19.8827 166.75 19.648C166.409 19.4133 166.009 19.296 165.55 19.296C165.091 19.296 164.691 19.4133 164.35 19.648C164.009 19.8827 163.742 20.2133 163.55 20.64C163.369 21.056 163.278 21.5413 163.278 22.096C163.278 22.6613 163.369 23.152 163.55 23.568C163.742 23.984 164.009 24.3093 164.35 24.544C164.691 24.7787 165.091 24.896 165.55 24.896ZM171.752 26V14.656H173.336V17.664L173.24 19.424H173.288C173.661 19.0293 174.077 18.6933 174.536 18.416C174.994 18.128 175.522 17.984 176.12 17.984C177.037 17.984 177.709 18.2613 178.136 18.816C178.562 19.36 178.776 20.1387 178.776 21.152V26H177.192V21.36C177.192 20.6773 177.064 20.176 176.808 19.856C176.562 19.5253 176.146 19.36 175.56 19.36C175.144 19.36 174.77 19.4667 174.44 19.68C174.109 19.8827 173.741 20.192 173.336 20.608V26H171.752ZM182.146 26V18.176H183.458L183.586 20H183.634C184.039 19.36 184.535 18.864 185.122 18.512C185.708 18.16 186.348 17.984 187.042 17.984C187.34 17.984 187.612 18.0107 187.858 18.064C188.103 18.1173 188.343 18.1973 188.578 18.304L188.226 19.664C187.959 19.568 187.73 19.504 187.538 19.472C187.346 19.4293 187.1 19.408 186.802 19.408C186.236 19.408 185.692 19.568 185.17 19.888C184.647 20.208 184.167 20.7627 183.73 21.552V26H182.146ZM194.331 26.192C193.926 26.192 193.585 26.0533 193.307 25.776C193.03 25.4987 192.891 25.1413 192.891 24.704C192.891 24.2667 193.03 23.9093 193.307 23.632C193.585 23.3547 193.926 23.216 194.331 23.216C194.747 23.216 195.089 23.3547 195.355 23.632C195.633 23.9093 195.771 24.2667 195.771 24.704C195.771 25.1413 195.633 25.4987 195.355 25.776C195.089 26.0533 194.747 26.192 194.331 26.192ZM204.645 26.192C203.834 26.192 203.104 26.032 202.453 25.712C201.802 25.392 201.285 24.928 200.901 24.32C200.528 23.7013 200.341 22.96 200.341 22.096C200.341 21.232 200.544 20.496 200.949 19.888C201.354 19.2693 201.888 18.8 202.549 18.48C203.221 18.1493 203.952 17.984 204.741 17.984C205.381 17.984 205.941 18.096 206.421 18.32C206.901 18.5333 207.301 18.7947 207.621 19.104L206.853 20.112C206.533 19.856 206.208 19.6587 205.877 19.52C205.557 19.3707 205.205 19.296 204.821 19.296C204.266 19.296 203.77 19.4133 203.333 19.648C202.906 19.8827 202.57 20.2133 202.325 20.64C202.09 21.056 201.973 21.5413 201.973 22.096C201.973 22.6613 202.09 23.152 202.325 23.568C202.56 23.984 202.885 24.3093 203.301 24.544C203.728 24.7787 204.218 24.896 204.773 24.896C205.242 24.896 205.669 24.8053 206.053 24.624C206.437 24.4427 206.784 24.224 207.093 23.968L207.781 24.992C207.344 25.376 206.853 25.6747 206.309 25.888C205.776 26.0907 205.221 26.192 204.645 26.192ZM213.519 26.192C212.836 26.192 212.196 26.032 211.599 25.712C211.012 25.392 210.532 24.928 210.159 24.32C209.796 23.7013 209.615 22.96 209.615 22.096C209.615 21.232 209.796 20.496 210.159 19.888C210.532 19.2693 211.012 18.8 211.599 18.48C212.196 18.1493 212.836 17.984 213.519 17.984C214.201 17.984 214.836 18.1493 215.423 18.48C216.02 18.8 216.5 19.2693 216.863 19.888C217.236 20.496 217.423 21.232 217.423 22.096C217.423 22.96 217.236 23.7013 216.863 24.32C216.5 24.928 216.02 25.392 215.423 25.712C214.836 26.032 214.201 26.192 213.519 26.192ZM213.519 24.896C213.977 24.896 214.377 24.7787 214.719 24.544C215.06 24.3093 215.321 23.984 215.503 23.568C215.695 23.152 215.791 22.6613 215.791 22.096C215.791 21.5413 215.695 21.056 215.503 20.64C215.321 20.2133 215.06 19.8827 214.719 19.648C214.377 19.4133 213.977 19.296 213.519 19.296C213.06 19.296 212.66 19.4133 212.319 19.648C211.977 19.8827 211.711 20.2133 211.519 20.64C211.337 21.056 211.247 21.5413 211.247 22.096C211.247 22.6613 211.337 23.152 211.519 23.568C211.711 23.984 211.977 24.3093 212.319 24.544C212.66 24.7787 213.06 24.896 213.519 24.896ZM219.145 26V18.176H220.393L220.521 19.2H220.553C220.745 18.848 220.974 18.56 221.241 18.336C221.507 18.1013 221.865 17.984 222.312 17.984C222.686 17.984 222.995 18.096 223.241 18.32C223.486 18.544 223.657 18.88 223.753 19.328C223.966 18.9227 224.206 18.5973 224.473 18.352C224.75 18.1067 225.113 17.984 225.561 17.984C226.115 17.984 226.542 18.1973 226.841 18.624C227.15 19.0507 227.305 19.6533 227.305 20.432V26H225.753V20.544C225.753 19.744 225.513 19.344 225.033 19.344C224.798 19.344 224.601 19.4347 224.441 19.616C224.281 19.7973 224.105 20.0693 223.913 20.432V26H222.536V20.544C222.536 20.1493 222.478 19.8507 222.361 19.648C222.254 19.4453 222.078 19.344 221.833 19.344C221.598 19.344 221.39 19.4347 221.209 19.616C221.038 19.7973 220.867 20.0693 220.697 20.432V26H219.145Z" fill="white"/>
</svg>
